Coordinates
version=1
nRows=9
nColumns=36
inDegrees=yes

Units are S.I. units (second, meters, Newtons, ...)
If the header above contains a line with 'inDegrees', this indicates whether rotational values are in degrees (yes) or radians (no).

endheader
time	pelvis_tilt	pelvis_list	pelvis_rotation	pelvis_tx	pelvis_ty	pelvis_tz	hip_flexion_r	hip_adduction_r	hip_rotation_r	knee_angle_r	knee_angle_r_beta	ankle_angle_r	subtalar_angle_r	mtp_angle_r	hip_flexion_l	hip_adduction_l	hip_rotation_l	knee_angle_l	knee_angle_l_beta	ankle_angle_l	subtalar_angle_l	mtp_angle_l	lumbar_extension	lumbar_bending	lumbar_rotation	arm_flex_r	arm_add_r	arm_rot_r	elbow_flex_r	pro_sup_r	arm_flex_l	arm_add_l	arm_rot_l	elbow_flex_l	pro_sup_l
      9.53333330	    -10.93488330	      9.87510287	     -4.81294701	      0.61253306	      0.77801432	     -0.29164975	     47.34182543	      2.35951856	      6.44731673	     61.48646629	      1.07314128	     27.07711928	     -7.62627863	     -7.49999987	     60.25937348	      3.63876589	      1.06410276	     13.82223939	      0.24124359	     -9.27613928	    -17.75479855	     -7.49999987	    -24.11307457	     -6.64865928	     -4.43382951	     67.38334569	      4.24397685	     66.82630871	    125.20365819	     93.98297473	     84.44764684	     14.20427852	     71.81530270	    122.01472153	     72.31655832
      9.55000000	    -11.21837144	      9.68439646	     -4.63426723	      0.61242293	      0.77558607	     -0.29228824	     48.25133271	      2.42589093	      6.13942763	     62.56693656	      1.09199905	     27.61328144	     -7.67946532	     -7.49999987	     60.98517711	      3.77338643	      1.09099068	     13.94908331	      0.24345743	     -8.63632459	    -17.62982777	     -7.49999987	    -24.26905016	     -6.09047006	     -4.42314158	     67.37673425	      4.12533501	     67.69540681	    125.77543769	     93.07271763	     84.52878705	     14.41636794	     71.14634244	    121.98362938	     71.76086637
      9.56666670	    -11.28925476	      9.22858696	     -4.39968517	      0.60913540	      0.77096703	     -0.28998237	     48.84094389	      2.85573366	      5.76814488	     63.43026931	      1.10706704	     28.12663862	     -7.90440083	     -7.49999987	     61.21221952	      3.58314180	      0.85692266	     13.40568500	      0.23397334	     -8.54709475	    -17.58122387	     -7.49999987	    -24.72992753	     -5.49553134	     -4.35876745	     67.41873852	      4.16392311	     67.88183612	    125.91338718	     93.17442960	     84.59789723	     14.53347765	     71.00789549	    121.87841129	     71.78892138
      9.58333330	    -11.52895039	      8.84785061	     -4.13735699	      0.60968060	      0.76658673	     -0.29056199	     49.79290888	      3.03759221	      5.09511589	     64.61430950	      1.12773244	     28.72515844	     -7.76396220	     -7.49999987	     61.86181714	      3.51576680	      0.66017858	     13.51562085	      0.23589208	     -8.24945061	    -17.11036101	     -7.49999987	    -24.99517058	     -4.95587778	     -4.36587322	     68.12583049	      4.07775819	     68.14957220	    125.87495318	     92.32137584	     84.47266164	     14.96825763	     70.54522803	    121.74191099	     70.99806685
      9.60000000	    -11.52798866	      8.26213677	     -3.97136367	      0.60664804	      0.76315617	     -0.29399730	     50.58501359	      3.29374991	      4.60354455	     65.78520887	      1.14816849	     29.26613485	     -7.70241408	     -7.49999987	     62.39662018	      3.28075916	      0.59011894	     13.79297538	      0.24073283	     -7.35752945	    -15.92226927	     -7.49999987	    -25.57517255	     -3.92498639	     -4.37302879	     69.03979977	      4.39517488	     68.64022466	    125.88091214	     97.11551756	     84.92608756	     14.65489986	     70.10468612	    122.18073954	     73.62317845
      9.61666670	    -11.25811019	      7.81421646	     -3.96677355	      0.60721452	      0.76266588	     -0.29398262	     50.75224242	      3.53883567	      4.04413084	     66.59670129	      1.16233171	     29.65426760	     -7.16521380	     -7.49999987	     62.17370665	      3.03554346	      1.07946877	     13.28721182	      0.23190559	     -7.34458473	    -15.63546690	     -7.49999987	    -26.54629437	     -3.18530726	     -4.05702630	     69.47770660	      4.14550252	     68.47411059	    125.95331121	     96.34873926	     85.60057918	     14.75366279	     70.14965583	    122.31356981	     73.10707304
      9.63333330	    -11.33676925	      7.56000748	     -3.97309794	      0.60787259	      0.75808499	     -0.29376499	     51.24251519	      3.77319435	      3.79295478	     67.40353043	      1.17641353	     30.26121814	     -6.75794399	     -7.49999987	     62.20035748	      2.82250264	      1.23973095	     12.73141807	      0.22220516	     -7.19949383	    -15.20759075	     -7.49999987	    -27.12941104	     -2.79404787	     -3.86952774	     69.69117016	      3.97576196	     69.14035999	    126.14259414	     95.34514528	     85.40890932	     14.86538560	     70.36994120	    122.56478066	     72.25488304
      9.65000000	    -11.17794829	      7.44097802	     -3.98592221	      0.60466674	      0.75455156	     -0.29702214	     51.60238173	      3.68866567	      3.48738429	     68.22152966	      1.19069031	     31.03049456	     -6.13260854	     -7.49999987	     62.26941563	      2.86722343	      1.32410979	     12.34851652	      0.21552227	     -7.42370245	    -15.46388689	     -7.49999987	    -28.19734669	     -2.32577283	     -3.98816217	     70.62352707	      3.78418933	     69.90020670	    125.94054499	     95.31190115	     85.79059956	     14.78506359	     70.69237933	    122.69504310	     72.41836918
      9.66666670	    -11.09533050	      7.43166354	     -3.93404316	      0.60477325	      0.74992976	     -0.29734645	     52.12404418	      3.65355902	      3.38119010	     69.19354444	      1.20765517	     31.49062204	     -6.36657547	     -7.49999987	     62.52910592	      2.90741858	      1.31746630	     12.27987271	      0.21432421	     -7.58946133	    -15.52129318	     -7.49999987	    -28.94194090	     -1.97118624	     -3.90862797	     71.29490915	      3.59083157	     69.79148365	    125.92261820	     94.85102112	     86.01085818	     14.72764812	     70.79730443	    122.98714672	     72.27174338
